<mxfile host="65bd71144e" scale="12" border="0">
    <diagram id="Fc0HPpUWH6O65rgKbgAe" name="Page-1">
        <mxGraphModel dx="764" dy="543" grid="1" gridSize="10" guides="1" tooltips="1" connect="1" arrows="1" fold="1" page="1" pageScale="1" pageWidth="850" pageHeight="1100" math="0" shadow="0">
            <root>
                <mxCell id="0"/>
                <mxCell id="1" parent="0"/>
                <mxCell id="2" value="HostLocal 1" style="rounded=1;whiteSpace=wrap;html=1;fontSize=17;container=0;fillStyle=auto;" parent="1" vertex="1">
                    <mxGeometry x="270" y="170" width="120" height="40.61538461538461" as="geometry"/>
                </mxCell>
                <mxCell id="3" value="HostEvent 1" style="rounded=1;whiteSpace=wrap;html=1;fontSize=17;container=0;" parent="1" vertex="1">
                    <mxGeometry x="350" y="230.00230769230768" width="120" height="40.61538461538461" as="geometry"/>
                </mxCell>
                <mxCell id="8" style="edgeStyle=none;html=1;exitX=0.75;exitY=1;exitDx=0;exitDy=0;entryX=0.25;entryY=0;entryDx=0;entryDy=0;fontSize=17;" parent="1" source="2" target="3" edge="1">
                    <mxGeometry relative="1" as="geometry"/>
                </mxCell>
                <mxCell id="21" style="edgeStyle=none;html=1;exitX=0.5;exitY=1;exitDx=0;exitDy=0;entryX=0.5;entryY=0;entryDx=0;entryDy=0;" parent="1" source="4" target="11" edge="1">
                    <mxGeometry relative="1" as="geometry"/>
                </mxCell>
                <mxCell id="4" value="PreCall 1" style="rounded=1;whiteSpace=wrap;html=1;fontSize=17;container=0;" parent="1" vertex="1">
                    <mxGeometry x="240" y="285.38461538461536" width="120" height="40.61538461538461" as="geometry"/>
                </mxCell>
                <mxCell id="10" style="edgeStyle=none;html=1;exitX=0.092;exitY=1.042;exitDx=0;exitDy=0;entryX=0.892;entryY=0.015;entryDx=0;entryDy=0;fontSize=17;exitPerimeter=0;entryPerimeter=0;" parent="1" source="3" target="4" edge="1">
                    <mxGeometry relative="1" as="geometry"/>
                </mxCell>
                <mxCell id="24" style="edgeStyle=none;html=1;exitX=0.5;exitY=1;exitDx=0;exitDy=0;entryX=0.25;entryY=0;entryDx=0;entryDy=0;" parent="1" source="5" target="19" edge="1">
                    <mxGeometry relative="1" as="geometry"/>
                </mxCell>
                <mxCell id="5" value="PostCall 1" style="rounded=1;whiteSpace=wrap;html=1;fontSize=17;container=0;" parent="1" vertex="1">
                    <mxGeometry x="240" y="478.15538461538466" width="120" height="40.61538461538461" as="geometry"/>
                </mxCell>
                <mxCell id="9" style="edgeStyle=none;html=1;exitX=0.75;exitY=1;exitDx=0;exitDy=0;entryX=0.5;entryY=0;entryDx=0;entryDy=0;fontSize=17;" parent="1" source="6" target="4" edge="1">
                    <mxGeometry relative="1" as="geometry"/>
                </mxCell>
                <mxCell id="6" value="HostLocal 2" style="rounded=1;whiteSpace=wrap;html=1;fontSize=17;container=0;" parent="1" vertex="1">
                    <mxGeometry x="180" y="230.00230769230768" width="120" height="40.61538461538461" as="geometry"/>
                </mxCell>
                <mxCell id="7" style="edgeStyle=none;html=1;exitX=0.25;exitY=1;exitDx=0;exitDy=0;fontSize=17;" parent="1" source="2" target="6" edge="1">
                    <mxGeometry relative="1" as="geometry"/>
                </mxCell>
                <mxCell id="22" style="edgeStyle=none;html=1;exitX=0.5;exitY=1;exitDx=0;exitDy=0;entryX=0.5;entryY=0;entryDx=0;entryDy=0;" parent="1" source="11" target="12" edge="1">
                    <mxGeometry relative="1" as="geometry"/>
                </mxCell>
                <mxCell id="11" value="MultiPair 1" style="rounded=1;whiteSpace=wrap;html=1;fontSize=17;container=0;fillColor=#D6D6D6;strokeColor=#666666;fontColor=#333333;" parent="1" vertex="1">
                    <mxGeometry x="240" y="346.30769230769226" width="120" height="40.61538461538461" as="geometry"/>
                </mxCell>
                <mxCell id="23" style="edgeStyle=none;html=1;exitX=0.5;exitY=1;exitDx=0;exitDy=0;entryX=0.5;entryY=0;entryDx=0;entryDy=0;" parent="1" source="12" target="5" edge="1">
                    <mxGeometry relative="1" as="geometry"/>
                </mxCell>
                <mxCell id="33" value="after &amp;lt;1ms" style="edgeStyle=none;html=1;exitX=0.75;exitY=0;exitDx=0;exitDy=0;entryX=0.75;entryY=1;entryDx=0;entryDy=0;strokeColor=#FF0000;fontColor=#FF0000;startArrow=classic;startFill=1;endArrow=none;endFill=0;fontSize=15;labelBackgroundColor=none;" parent="1" source="12" target="11" edge="1">
                    <mxGeometry x="0.2093" y="-40" relative="1" as="geometry">
                        <mxPoint as="offset"/>
                    </mxGeometry>
                </mxCell>
                <mxCell id="12" value="MPCallback 1" style="rounded=1;whiteSpace=wrap;html=1;fontSize=17;container=0;fillColor=#D6D6D6;strokeColor=#666666;fontColor=#333333;" parent="1" vertex="1">
                    <mxGeometry x="240" y="420.0015384615385" width="120" height="40.61538461538461" as="geometry"/>
                </mxCell>
                <mxCell id="27" style="edgeStyle=none;html=1;exitX=0.75;exitY=1;exitDx=0;exitDy=0;" parent="1" source="13" edge="1">
                    <mxGeometry relative="1" as="geometry">
                        <mxPoint x="480" y="460" as="targetPoint"/>
                    </mxGeometry>
                </mxCell>
                <mxCell id="13" value="PreCall 2" style="rounded=1;whiteSpace=wrap;html=1;fontSize=17;container=0;" parent="1" vertex="1">
                    <mxGeometry x="390" y="285.38461538461536" width="120" height="40.61538461538461" as="geometry"/>
                </mxCell>
                <mxCell id="14" style="edgeStyle=none;html=1;exitX=0.75;exitY=1;exitDx=0;exitDy=0;fontSize=17;" parent="1" source="3" target="13" edge="1">
                    <mxGeometry relative="1" as="geometry"/>
                </mxCell>
                <mxCell id="26" style="edgeStyle=none;html=1;exitX=0.5;exitY=1;exitDx=0;exitDy=0;entryX=0.5;entryY=0;entryDx=0;entryDy=0;" parent="1" source="15" target="18" edge="1">
                    <mxGeometry relative="1" as="geometry"/>
                </mxCell>
                <mxCell id="34" value="after &amp;lt;2ms" style="edgeStyle=none;html=1;exitX=0.25;exitY=0;exitDx=0;exitDy=0;entryX=1;entryY=0.25;entryDx=0;entryDy=0;fontColor=#FF0000;strokeColor=#FF0000;startArrow=classic;startFill=1;endArrow=none;endFill=0;fontSize=15;labelBackgroundColor=none;" parent="1" source="15" target="12" edge="1">
                    <mxGeometry x="-0.3231" y="-23" relative="1" as="geometry">
                        <mxPoint as="offset"/>
                    </mxGeometry>
                </mxCell>
                <mxCell id="15" value="LocalRoutine 1" style="rounded=1;whiteSpace=wrap;html=1;fontSize=17;container=0;fillColor=#D6D6D6;strokeColor=#666666;fontColor=#333333;" parent="1" vertex="1">
                    <mxGeometry x="390" y="449.99538461538464" width="120" height="40.61538461538461" as="geometry"/>
                </mxCell>
                <mxCell id="16" style="edgeStyle=none;html=1;exitX=1;exitY=0.75;exitDx=0;exitDy=0;fontSize=17;entryX=0;entryY=0.25;entryDx=0;entryDy=0;" parent="1" source="12" target="15" edge="1">
                    <mxGeometry relative="1" as="geometry">
                        <mxPoint x="400" y="460" as="targetPoint"/>
                    </mxGeometry>
                </mxCell>
                <mxCell id="25" style="edgeStyle=none;html=1;exitX=0.25;exitY=1;exitDx=0;exitDy=0;entryX=0.825;entryY=-0.074;entryDx=0;entryDy=0;entryPerimeter=0;" parent="1" source="18" target="19" edge="1">
                    <mxGeometry relative="1" as="geometry"/>
                </mxCell>
                <mxCell id="18" value="PostCall 2" style="rounded=1;whiteSpace=wrap;html=1;fontSize=17;container=0;" parent="1" vertex="1">
                    <mxGeometry x="390" y="509.3892307692307" width="120" height="40.61538461538461" as="geometry"/>
                </mxCell>
                <mxCell id="19" value="HostLocal 3" style="rounded=1;whiteSpace=wrap;html=1;fontSize=17;container=0;" parent="1" vertex="1">
                    <mxGeometry x="300" y="570.0046153846154" width="120" height="40.61538461538461" as="geometry"/>
                </mxCell>
                <mxCell id="29" value="enables" style="edgeStyle=none;html=1;exitX=0.25;exitY=1;exitDx=0;exitDy=0;strokeColor=#0066CC;fontColor=#0066CC;fontSize=15;labelBackgroundColor=none;entryX=1;entryY=0.5;entryDx=0;entryDy=0;" parent="1" source="28" target="3" edge="1">
                    <mxGeometry x="-0.4277" y="23" relative="1" as="geometry">
                        <mxPoint x="450" y="230" as="targetPoint"/>
                        <mxPoint as="offset"/>
                    </mxGeometry>
                </mxCell>
                <mxCell id="28" value="Classical Message Buffer" style="rounded=0;whiteSpace=wrap;html=1;fontSize=17;fillColor=#dae8fc;strokeColor=#6c8ebf;" parent="1" vertex="1">
                    <mxGeometry x="480" y="168.31" width="160" height="42.31" as="geometry"/>
                </mxCell>
                <mxCell id="31" value="enables" style="edgeStyle=none;html=1;exitX=0;exitY=0.5;exitDx=0;exitDy=0;entryX=1;entryY=0.5;entryDx=0;entryDy=0;strokeColor=#009900;fontColor=#009900;fontSize=15;labelBackgroundColor=none;" parent="1" source="30" target="11" edge="1">
                    <mxGeometry x="0.1564" y="9" relative="1" as="geometry">
                        <mxPoint as="offset"/>
                    </mxGeometry>
                </mxCell>
                <mxCell id="30" value="Network Schedule" style="rounded=0;whiteSpace=wrap;html=1;fontSize=17;fillColor=#d5e8d4;strokeColor=#82b366;" parent="1" vertex="1">
                    <mxGeometry x="500" y="346.31" width="160" height="42.31" as="geometry"/>
                </mxCell>
            </root>
        </mxGraphModel>
    </diagram>
</mxfile>